<svg width="18" height="18" viewBox="0 0 18 18" fill="none" xmlns="http://www.w3.org/2000/svg">
<path d="M8.99999 0.666672C4.39999 0.666672 0.666656 4.40001 0.666656 9C0.666656 13.6 4.39999 17.3333 8.99999 17.3333C13.6 17.3333 17.3333 13.6 17.3333 9C17.3333 4.40001 13.6 0.666672 8.99999 0.666672ZM8.99999 15.6667C5.32499 15.6667 2.33332 12.675 2.33332 9C2.33332 5.32501 5.32499 2.33334 8.99999 2.33334C12.675 2.33334 15.6667 5.32501 15.6667 9C15.6667 12.675 12.675 15.6667 8.99999 15.6667ZM12.2333 5.90834L7.33332 10.8083L5.76666 9.24167C5.44166 8.91667 4.91666 8.91667 4.59166 9.24167C4.26666 9.56667 4.26666 10.0917 4.59166 10.4167L6.74999 12.575C7.07499 12.9 7.59999 12.9 7.92499 12.575L13.4167 7.08334C13.7417 6.75834 13.7417 6.23334 13.4167 5.90834C13.0917 5.58334 12.5583 5.58334 12.2333 5.90834Z" fill="#737486"/>
</svg>
