<svg width="18" height="18" viewBox="0 0 18 18" fill="none" xmlns="http://www.w3.org/2000/svg">
<path d="M8.99999 0.666672C4.39999 0.666672 0.666656 4.40001 0.666656 9C0.666656 13.6 4.39999 17.3333 8.99999 17.3333C13.6 17.3333 17.3333 13.6 17.3333 9C17.3333 4.40001 13.6 0.666672 8.99999 0.666672ZM6.74166 12.575L3.74999 9.58334C3.42499 9.25834 3.42499 8.73334 3.74999 8.40834C4.07499 8.08334 4.59999 8.08334 4.92499 8.40834L7.33332 10.8083L13.0667 5.07501C13.3917 4.75 13.9167 4.75 14.2417 5.07501C14.5667 5.4 14.5667 5.925 14.2417 6.25L7.91666 12.575C7.59999 12.9 7.06666 12.9 6.74166 12.575Z" fill="white"/>
</svg>
